<!--
 * Copyright (c) 2025, WSO2 LLC. (https://www.wso2.org) All Rights Reserved.
 *
 * WSO2 LLC. licenses this file to you under the Apache License,
 * Version 2.0 (the "License"); you may not use this file except
 * in compliance with the License.
 * You may obtain a copy of the License at
 *
 *     http://www.apache.org/licenses/LICENSE-2.0
 *
 * Unless required by applicable law or agreed to in writing,
 * software distributed under the License is distributed on an
 * "AS IS" BASIS, WITHOUT WARRANTIES OR CONDITIONS OF ANY
 * KIND, either express or implied. See the License for the
 * specific language governing permissions and limitations
 * under the License.
-->

<svg width="16" height="16" viewBox="0 0 16 16" fill="none" xmlns="http://www.w3.org/2000/svg">
    <path fill-rule="evenodd" clip-rule="evenodd" d="M5 0.5C4.17157 0.5 3.5 1.17157 3.5 2V14C3.5 14.8284 4.17157 15.5 5 15.5H11C11.8284 15.5 12.5 14.8284 12.5 14V2C12.5 1.17157 11.8284 0.5 11 0.5H5ZM4.5 2C4.5 1.72386 4.72386 1.5 5 1.5H11C11.2761 1.5 11.5 1.72386 11.5 2V14C11.5 14.2761 11.2761 14.5 11 14.5H5C4.72386 14.5 4.5 14.2761 4.5 14V2Z" fill="black"/>
    <path d="M6.75 12.5C6.75 12.2239 6.97386 12 7.25 12H8.75C9.02614 12 9.25 12.2239 9.25 12.5C9.25 12.7761 9.02614 13 8.75 13H7.25C6.97386 13 6.75 12.7761 6.75 12.5Z" fill="black"/>
</svg>
